<svg width="73" height="73" viewBox="0 0 73 73" fill="none" xmlns="http://www.w3.org/2000/svg">
<path d="M22.9474 58.516H17.2153C8.43834 57.8891 4.4978 51.1422 4.4978 45.1416C4.4978 39.141 8.43838 32.3642 17.0661 31.7671C18.2901 31.6477 19.3648 32.603 19.4544 33.8569C19.5439 35.0809 18.6186 36.1556 17.3648 36.2452C11.5731 36.6631 8.97586 41.0217 8.97586 45.1714C8.97586 49.3211 11.5731 53.6797 17.3648 54.0977H22.9474C24.1714 54.0977 25.1864 55.1127 25.1864 56.3367C25.1864 57.5607 24.1714 58.516 22.9474 58.516Z" fill="#292D32"/>
<path d="M50.4415 58.5158C50.3818 58.5158 50.352 58.5158 50.2923 58.5158C49.0683 58.5158 47.9339 57.5008 47.9339 56.2768C47.9339 54.9931 48.8892 54.0378 50.1431 54.0378C53.8151 54.0378 57.099 52.7541 59.6664 50.4553C64.3236 46.3952 64.6221 40.5439 63.3682 36.4241C62.1144 32.3341 58.6215 27.6471 52.5313 26.9007C51.5461 26.7813 50.7699 26.035 50.5908 25.0498C49.3966 17.8849 45.5456 12.9292 39.6942 11.138C33.6638 9.25718 26.6182 11.1081 22.2297 15.7056C17.9606 20.1538 16.9755 26.3932 19.4533 33.2596C19.8713 34.4239 19.2743 35.7076 18.11 36.1255C16.9458 36.5435 15.662 35.9464 15.244 34.7821C12.2288 26.3634 13.6021 18.3029 19.0056 12.6307C24.5286 6.83902 33.3951 4.54026 41.0078 6.86885C47.9936 9.01832 52.9194 14.7801 54.7106 22.7809C60.8007 24.1542 65.6968 28.7815 67.6373 35.1702C69.7569 42.1262 67.8463 49.2911 62.6219 53.8288C59.3081 56.8142 54.9793 58.5158 50.4415 58.5158Z" fill="#292D32"/>
<path d="M36.5002 67.293C30.4996 67.293 24.8871 64.0986 21.8122 58.9339C21.4838 58.4264 21.1554 57.8293 20.8867 57.1725C19.8717 55.0529 19.3343 52.6348 19.3343 50.1271C19.3343 40.6634 27.0365 32.9612 36.5002 32.9612C45.9638 32.9612 53.6661 40.6634 53.6661 50.1271C53.6661 52.6646 53.1288 55.0529 52.054 57.2621C51.8152 57.8293 51.4868 58.4264 51.1286 58.9936C48.1133 64.0986 42.5008 67.293 36.5002 67.293ZM36.5002 37.4392C29.5144 37.4392 23.8123 43.1413 23.8123 50.1271C23.8123 51.978 24.2004 53.7095 24.9468 55.2917C25.1856 55.7993 25.3945 56.2172 25.6333 56.6053C27.9022 60.4564 32.0519 62.8149 36.4703 62.8149C40.8886 62.8149 45.0383 60.4565 47.2773 56.665C47.546 56.2172 47.785 55.7993 47.9641 55.3813C48.7701 53.7393 49.1581 52.0078 49.1581 50.1569C49.188 43.1413 43.4859 37.4392 36.5002 37.4392Z" fill="#292D32"/>
<path d="M34.7981 55.3215C34.2309 55.3215 33.6637 55.1125 33.2159 54.6647L30.2603 51.7092C29.3945 50.8434 29.3945 49.4104 30.2603 48.5447C31.126 47.6789 32.559 47.6789 33.4248 48.5447L34.8579 49.9777L39.6344 45.5593C40.5599 44.7234 41.963 44.7831 42.7989 45.6787C43.6348 46.5743 43.5751 48.0073 42.6795 48.8432L36.3207 54.7244C35.8729 55.1125 35.3355 55.3215 34.7981 55.3215Z" fill="#292D32"/>
</svg>
