<svg width="147" height="147" viewBox="0 0 147 147" fill="none" xmlns="http://www.w3.org/2000/svg">
<circle cx="73.7403" cy="73.2541" r="71.649" fill="white" stroke="#CBD0DC" stroke-width="3.11517"/>
<path d="M60.1874 95.1668H54.4554C45.6784 94.5398 41.7379 87.7929 41.7379 81.7923C41.7379 75.7917 45.6784 69.0149 54.3062 68.4178C55.5302 68.2984 56.6049 69.2537 56.6944 70.5076C56.784 71.7316 55.8587 72.8063 54.6048 72.8959C48.8132 73.3138 46.2159 77.6725 46.2159 81.8221C46.2159 85.9718 48.8132 90.3305 54.6048 90.7484H60.1874C61.4114 90.7484 62.4265 91.7635 62.4265 92.9875C62.4265 94.2115 61.4114 95.1668 60.1874 95.1668Z" fill="#292D32"/>
<path d="M87.6814 95.1667C87.6217 95.1667 87.5919 95.1667 87.5322 95.1667C86.3082 95.1667 85.1738 94.1517 85.1738 92.9277C85.1738 91.644 86.1291 90.6887 87.383 90.6887C91.055 90.6887 94.3389 89.405 96.9063 87.1062C101.564 83.0461 101.862 77.1948 100.608 73.075C99.3543 68.985 95.8614 64.298 89.7712 63.5516C88.7861 63.4322 88.0098 62.6859 87.8307 61.7007C86.6365 54.5358 82.7855 49.5801 76.9342 47.7888C70.9037 45.9081 63.8581 47.759 59.4696 52.3565C55.2005 56.8047 54.2154 63.0441 56.6932 69.9105C57.1112 71.0748 56.5143 72.3585 55.35 72.7764C54.1857 73.1944 52.9019 72.5973 52.4839 71.433C49.4687 63.0142 50.842 54.9537 56.2455 49.2815C61.7685 43.4899 70.635 41.1911 78.2477 43.5197C85.2335 45.6692 90.1593 51.431 91.9505 59.4318C98.0407 60.8051 102.937 65.4324 104.877 71.8211C106.997 78.777 105.086 85.9419 99.8618 90.4797C96.548 93.4651 92.2192 95.1667 87.6814 95.1667Z" fill="#292D32"/>
<path d="M73.7401 103.944C67.7395 103.944 62.127 100.749 59.0521 95.5847C58.7237 95.0772 58.3953 94.4802 58.1266 93.8234C57.1116 91.7038 56.5742 89.2856 56.5742 86.7779C56.5742 77.3143 64.2764 69.612 73.7401 69.612C83.2037 69.612 90.906 77.3143 90.906 86.7779C90.906 89.3155 90.3687 91.7038 89.2939 93.9129C89.0551 94.4802 88.7267 95.0772 88.3685 95.6445C85.3532 100.749 79.7407 103.944 73.7401 103.944ZM73.7401 74.0901C66.7543 74.0901 61.0522 79.7921 61.0522 86.7779C61.0522 88.6288 61.4403 90.3603 62.1867 91.9426C62.4255 92.4501 62.6344 92.8681 62.8733 93.2562C65.1421 97.1073 69.2918 99.4657 73.7102 99.4657C78.1285 99.4657 82.2782 97.1073 84.5172 93.3159C84.7859 92.8681 85.0249 92.4501 85.204 92.0321C86.01 90.3902 86.398 88.6587 86.398 86.8077C86.4279 79.7921 80.7258 74.0901 73.7401 74.0901Z" fill="#292D32"/>
<path d="M72.0382 91.9724C71.471 91.9724 70.9039 91.7634 70.4561 91.3156L67.5004 88.36C66.6346 87.4943 66.6346 86.0613 67.5004 85.1956C68.3662 84.3298 69.7991 84.3298 70.6649 85.1956L72.098 86.6285L76.8745 82.2102C77.8 81.3743 79.2031 81.434 80.039 82.3296C80.8749 83.2252 80.8153 84.6582 79.9197 85.4941L73.5608 91.3753C73.113 91.7634 72.5756 91.9724 72.0382 91.9724Z" fill="#292D32"/>
</svg>
