<svg width="38" height="38" viewBox="0 0 38 38" fill="none" xmlns="http://www.w3.org/2000/svg">
<path d="M18.85 3.56909C10.2677 3.56909 3.27414 10.5627 3.27414 19.145C3.27414 27.7273 10.2677 34.7208 18.85 34.7208C27.4323 34.7208 34.4259 27.7273 34.4259 19.145C34.4259 10.5627 27.4323 3.56909 18.85 3.56909ZM26.2953 15.5625L17.4638 24.394C17.2457 24.6121 16.9498 24.7367 16.6382 24.7367C16.3267 24.7367 16.0308 24.6121 15.8127 24.394L11.4047 19.9861C10.953 19.5344 10.953 18.7867 11.4047 18.335C11.8564 17.8833 12.6041 17.8833 13.0558 18.335L16.6382 21.9175L24.6442 13.9115C25.0959 13.4598 25.8436 13.4598 26.2953 13.9115C26.747 14.3632 26.747 15.0952 26.2953 15.5625Z" fill="#3EBF8F"/>
</svg>
